<?xml version="1.0" encoding="utf-8"?>
<!-- Generator: Adobe Illustrator 17.0.0, SVG Export Plug-In . SVG Version: 6.00 Build 0)  -->
<!DOCTYPE svg PUBLIC "-//W3C//DTD SVG 1.1//EN" "http://www.w3.org/Graphics/SVG/1.1/DTD/svg11.dtd">
<svg version="1.1" xmlns="http://www.w3.org/2000/svg" xmlns:xlink="http://www.w3.org/1999/xlink" x="0px" y="0px"
	 width="283.46px" height="85.039px" viewBox="0 0 283.46 85.039" enable-background="new 0 0 283.46 85.039" xml:space="preserve">
<g id="Layer_1" display="none">
	<g id="Layer_4">
		<rect display="inline" fill="#3873B3" width="283.46" height="85.039"/>
	</g>
	<g id="Layer_1_1_" display="inline">
		<path fill="#D5D3CB" d="M94.786,55.357c0,2.876-2.137,4.396-5.197,4.396H86.65v3.698h-2.486V51.125h5.588
			C92.854,51.125,94.786,52.665,94.786,55.357z M89.65,53.302h-3v4.334h3.02c1.602,0,2.568-0.678,2.568-2.178
			C92.238,54.042,91.252,53.302,89.65,53.302z M98.769,63.45V51.125h2.486v10.148h6.574v2.178L98.769,63.45L98.769,63.45z
			 M116.372,51.125h0.432l6.347,12.325h-2.814l-0.802-1.685h-5.896l-0.78,1.685h-2.815L116.372,51.125z M116.66,55.624h-0.165
			l-1.869,4.026l-0.144,0.267h4.191l-0.144-0.267L116.66,55.624z M123.951,51.125h10.518v2.178h-4.006V63.45h-2.486V53.302h-4.026
			V51.125z M138.267,51.125h9.573v2.178h-7.088v2.999h6.081v2.034h-6.081v5.115h-2.486V51.125H138.267z M150.982,57.288
			c0-3.554,2.486-6.43,6.512-6.43c4.047,0,6.533,2.876,6.533,6.43s-2.486,6.43-6.533,6.43
			C153.467,63.718,150.982,60.842,150.982,57.288z M161.479,57.288c0-2.342-1.664-4.047-3.986-4.047
			c-2.301,0-3.944,1.705-3.944,4.047s1.644,4.047,3.944,4.047C159.815,61.335,161.479,59.63,161.479,57.288z M168.276,51.125h5.567
			c3.122,0,5.053,1.54,5.053,4.232c0,1.828-0.904,3.081-2.322,3.759v0.185l2.938,3.903v0.246h-2.815l-2.732-3.759h-3.205v3.759
			h-2.486V51.125H168.276z M173.762,53.302h-3v4.293h3.061c1.561,0,2.506-0.698,2.506-2.137
			C176.329,54.042,175.364,53.302,173.762,53.302z M193.665,56.178l-3.575,3.615h-0.493l-3.595-3.615v7.272h-2.486V51.125h0.678
			l5.608,5.526l5.67-5.526h0.658V63.45h-2.465V56.178z"/>
	</g>
	<g id="Layer_2" display="inline">
		<path fill="#FFFFFF" d="M86.643,37.986c0,0,2.965,2.178,6.645,2.178c2.74,0,3.83-1.089,3.83-2.515
			c0-1.464-0.977-2.215-4.881-3.304c-5.106-1.426-7.772-3.229-7.772-6.833c0-4.017,3.004-6.682,8.785-6.682
			c6.044,0,8.522,2.327,8.522,2.327l-2.44,3.717c0,0-2.403-1.877-6.082-1.877c-2.478,0-3.68,0.863-3.68,2.253
			c0,1.351,1.164,1.952,4.693,2.928c5.519,1.464,8.034,3.416,8.034,7.058c0,3.942-2.74,7.095-8.898,7.095
			c-6.195,0-9.236-2.891-9.236-2.891L86.643,37.986z M126.7,21.317h5.256l-8.523,13.929v8.597h-4.543v-8.635l-8.447-13.891h5.256
			l4.655,7.846l0.638,1.427h0.413l0.675-1.427L126.7,21.317z M142.28,37.986c0,0,2.965,2.178,6.645,2.178
			c2.74,0,3.83-1.089,3.83-2.515c0-1.464-0.977-2.215-4.881-3.304c-5.106-1.426-7.772-3.229-7.772-6.833
			c0-4.017,3.004-6.682,8.785-6.682c6.044,0,8.522,2.327,8.522,2.327l-2.44,3.717c0,0-2.403-1.877-6.082-1.877
			c-2.478,0-3.68,0.863-3.68,2.253c0,1.351,1.164,1.952,4.693,2.928c5.519,1.464,8.034,3.416,8.034,7.058
			c0,3.942-2.74,7.095-8.898,7.095c-6.195,0-9.236-2.891-9.236-2.891L142.28,37.986z M187.855,41.553c0,0-2.515,2.778-7.959,2.778
			c-7.359,0-11.976-5.256-11.976-11.751s4.617-11.751,11.976-11.751c5.481,0,7.959,2.778,7.959,2.778l-2.59,3.492
			c0,0-2.328-1.915-5.293-1.915c-4.318,0-7.359,3.116-7.359,7.396s3.041,7.433,7.359,7.433c3.416,0,5.293-1.952,5.293-1.952
			L187.855,41.553z M196.752,32.58c0-6.495,4.542-11.751,11.901-11.751c7.397,0,11.939,5.256,11.939,11.751
			s-4.542,11.751-11.939,11.751C201.294,44.331,196.752,39.075,196.752,32.58z M215.936,32.58c0-4.28-3.041-7.396-7.284-7.396
			c-4.205,0-7.208,3.116-7.208,7.396s3.004,7.396,7.208,7.396C212.895,39.976,215.936,36.86,215.936,32.58z M236.658,43.843h-4.543
			V21.317h4.543V43.843z M270.333,43.843h-1.089l-15.092-13.741v13.741h-4.543V21.317h1.127l15.092,13.44V21.355h4.505
			L270.333,43.843L270.333,43.843z"/>
	</g>
	<g id="Layer_3" display="inline">
		<g>
			<path fill="#EBEAE6" d="M61.062,60.928c-1.466,1.274-3.132,2.434-4.964,3.446c0.34-0.27-0.726-1.393-0.404-1.681
				c8.079-7.026,9.926-16.07,6.664-24.026c-0.44-1.074,0.487-1.504,0.492-2.489C70.292,43.21,69.49,53.6,61.062,60.928z"/>
			<path fill="#FFFFFF" d="M62.85,36.178c-2.731-2.582-6.561-4.711-11.533-6.072c-0.022-0.006-0.042-0.009-0.064-0.015
				c0.023,0.006,0.045,0.011,0.069,0.017c1.633,0.429,1.76,2.318,2.884,3.272c2.407,2.042,3.064,4.657,3.311,8.111
				c0.369,5.139,0.34,10.224-3.414,14.751c-1.97,2.376-4.458,4.537-7.399,5.806c-0.216,0.097-0.432,0.194-0.656,0.285
				c-0.035,0.009-0.061,0.026-0.096,0.035c-1.413,0.567-2.984,1.029-4.72,1.352c-6.089,1.152-14.142,0.672-23.887-2.425
				c3.891,3.001,8.061,4.999,12.266,6.15c4.606,1.265,9.256,1.527,13.653,1.003c0.009,0,0.026,0,0.035-0.009
				c0.654-0.07,1.3-0.166,1.937-0.279c2.556-0.445,5.008-1.16,7.285-2.085h0.009c1.239-0.506,2.434-1.073,3.568-1.701
				c0.34-0.27,0.68-0.55,1.003-0.838C66.27,55.563,68.347,44.745,62.85,36.178z"/>
			<path fill="#D5D3CB" d="M46.047,62.331c11.392-4.642,12.005-16.404-1.233-23.025c-9.616-4.811-5.369-12.448,6.507-9.199
				C64.588,33.592,60.663,56.694,46.047,62.331z"/>
			<path fill="#EBEAE6" d="M63.726,23.749c-12.518-3.981-22.23-3.638-28.602-1.073c-0.031,0.011-0.063,0.023-0.094,0.037
				c-9.473,3.861-11.493,12.645-4.29,19.301c-1.898-1.574-4.064-3.247-5.001-5.375c-1.197-2.718-1.557-6.08-1.078-8.907
				c0.648-3.823,3.065-7.271,7.042-9.378c1.583-0.839,3.966-1.439,6.111-1.762C46.232,15.587,55.585,17.456,63.726,23.749z"/>
			<path fill="#FFFFFF" d="M32.859,55.572c-0.823-0.266-1.749-0.393-2.509-0.699c-9.67-3.888-14.834-11.122-14.649-18.259
				c0.132-5.072,3.106-10.209,7.975-14.443c1.378-1.196,3.194-2.207,4.866-3.201c0.004-0.004,0.008-0.004,0.012-0.004
				c2.277-0.927,4.727-1.639,7.285-2.086c0.65-0.112,1.308-0.207,1.974-0.286c-0.786,0.12-1.531,0.273-2.239,0.472
				c-12.512,3.402-13.262,17.964-4.834,24.95c0,0,0.004,0,0.008,0.004c1.457,1.345,3.291,2.608,5.513,3.717
				C44.983,50.104,42.301,56.793,32.859,55.572z"/>
			<path fill="#D5D3CB" d="M32.859,55.572c-0.964-0.124-2.003-0.331-3.104-0.633c-18.539-5.066-21.258-20.811-9.743-30.824
				c2.376-2.065,5.277-3.825,8.531-5.145c-1.672,0.993-3.216,2.099-4.594,3.295C11.688,32.927,14.13,49.508,32.859,55.572z"/>
		</g>
	</g>
</g>
<g id="Layer_2_1_">
	<g id="Layer_1_2_">
		<path fill="#3873B3" d="M94.659,56.02c0,2.876-2.137,4.396-5.197,4.396h-2.938v3.698h-2.486V51.788h5.588
			C92.728,51.788,94.659,53.329,94.659,56.02z M89.523,53.966h-3V58.3h3.02c1.602,0,2.568-0.678,2.568-2.178
			C92.111,54.705,91.126,53.966,89.523,53.966z M98.642,64.114V51.788h2.486v10.148h6.574v2.178H98.642z M116.245,51.788h0.432
			l6.347,12.325h-2.814l-0.802-1.685h-5.896l-0.78,1.685h-2.815L116.245,51.788z M116.533,56.287h-0.165l-1.869,4.026l-0.144,0.267
			h4.191l-0.144-0.267L116.533,56.287z M123.824,51.788h10.518v2.178h-4.006v10.148h-2.486V53.966h-4.026V51.788z M138.141,51.788
			h9.573v2.178h-7.088v2.999h6.081v2.034h-6.081v5.115h-2.486L138.141,51.788L138.141,51.788z M150.855,57.951
			c0-3.554,2.486-6.43,6.512-6.43c4.047,0,6.533,2.876,6.533,6.43s-2.486,6.43-6.533,6.43
			C153.341,64.381,150.855,61.505,150.855,57.951z M161.353,57.951c0-2.342-1.664-4.047-3.986-4.047
			c-2.301,0-3.944,1.705-3.944,4.047s1.644,4.047,3.944,4.047C159.689,61.998,161.353,60.293,161.353,57.951z M168.15,51.788h5.567
			c3.122,0,5.053,1.54,5.053,4.232c0,1.828-0.904,3.081-2.322,3.759v0.185l2.938,3.903v0.246h-2.815l-2.732-3.759h-3.205v3.759
			h-2.486V51.788H168.15z M173.635,53.966h-3v4.293h3.061c1.561,0,2.506-0.698,2.506-2.137
			C176.203,54.705,175.237,53.966,173.635,53.966z M193.539,56.842l-3.575,3.615h-0.493l-3.595-3.615v7.272h-2.486V51.788h0.678
			l5.608,5.526l5.67-5.526h0.658v12.325h-2.465L193.539,56.842L193.539,56.842z"/>
	</g>
	<g id="Layer_2_2_">
		<path fill="#202129" d="M86.516,38.649c0,0,2.965,2.178,6.645,2.178c2.74,0,3.83-1.089,3.83-2.515
			c0-1.464-0.977-2.215-4.881-3.304c-5.106-1.426-7.772-3.229-7.772-6.833c0-4.017,3.004-6.682,8.785-6.682
			c6.044,0,8.522,2.327,8.522,2.327l-2.44,3.717c0,0-2.403-1.877-6.082-1.877c-2.478,0-3.68,0.863-3.68,2.253
			c0,1.351,1.164,1.952,4.693,2.928c5.519,1.464,8.034,3.416,8.034,7.058c0,3.942-2.74,7.095-8.898,7.095
			c-6.195,0-9.236-2.891-9.236-2.891L86.516,38.649z M126.574,21.98h5.256l-8.523,13.929v8.597h-4.543v-8.635l-8.446-13.891h5.256
			l4.655,7.846l0.638,1.427h0.413l0.675-1.427L126.574,21.98z M142.153,38.649c0,0,2.965,2.178,6.645,2.178
			c2.74,0,3.83-1.089,3.83-2.515c0-1.464-0.977-2.215-4.881-3.304c-5.106-1.426-7.772-3.229-7.772-6.833
			c0-4.017,3.004-6.682,8.785-6.682c6.044,0,8.522,2.327,8.522,2.327l-2.44,3.717c0,0-2.403-1.877-6.082-1.877
			c-2.478,0-3.68,0.863-3.68,2.253c0,1.351,1.164,1.952,4.693,2.928c5.519,1.464,8.034,3.416,8.034,7.058
			c0,3.942-2.74,7.095-8.898,7.095c-6.195,0-9.236-2.891-9.236-2.891L142.153,38.649z M187.728,42.216c0,0-2.515,2.778-7.959,2.778
			c-7.359,0-11.976-5.256-11.976-11.751s4.617-11.751,11.976-11.751c5.481,0,7.959,2.778,7.959,2.778l-2.59,3.492
			c0,0-2.328-1.915-5.293-1.915c-4.318,0-7.359,3.116-7.359,7.396s3.041,7.433,7.359,7.433c3.416,0,5.293-1.952,5.293-1.952
			L187.728,42.216z M196.625,33.243c0-6.495,4.542-11.751,11.901-11.751c7.397,0,11.939,5.256,11.939,11.751
			s-4.542,11.751-11.939,11.751C201.167,44.994,196.625,39.738,196.625,33.243z M215.81,33.243c0-4.28-3.041-7.396-7.284-7.396
			c-4.205,0-7.208,3.116-7.208,7.396s3.004,7.396,7.208,7.396C212.769,40.639,215.81,37.523,215.81,33.243z M236.532,44.506h-4.543
			V21.98h4.543V44.506z M270.207,44.506h-1.089l-15.093-13.741v13.741h-4.543V21.98h1.127l15.092,13.44V22.018h4.505v22.488H270.207
			z"/>
	</g>
	<g id="Layer_3_1_">
		<g>
			<path fill="#449BC1" d="M60.935,61.592c-1.466,1.274-3.132,2.434-4.964,3.446c0.34-0.27-0.726-1.393-0.404-1.681
				c8.079-7.026,9.926-16.07,6.664-24.026c-0.44-1.074,0.487-1.504,0.492-2.489C70.165,43.873,69.363,54.263,60.935,61.592z"/>
			<path fill="#0670B0" d="M62.724,36.841c-2.731-2.582-6.561-4.711-11.533-6.072c-0.022-0.006-0.042-0.009-0.064-0.015
				c0.023,0.006,0.045,0.011,0.069,0.017c1.633,0.429,1.76,2.318,2.884,3.272c2.407,2.042,3.064,4.657,3.311,8.112
				c0.369,5.139,0.34,10.224-3.414,14.751c-1.97,2.376-4.458,4.537-7.399,5.806c-0.216,0.097-0.432,0.194-0.656,0.285
				c-0.035,0.009-0.061,0.026-0.096,0.035c-1.413,0.567-2.984,1.029-4.72,1.352c-6.089,1.152-14.142,0.672-23.887-2.425
				c3.891,3.001,8.061,4.999,12.266,6.15c4.606,1.265,9.256,1.527,13.653,1.003c0.009,0,0.026,0,0.035-0.009
				c0.654-0.07,1.3-0.166,1.937-0.279c2.556-0.445,5.008-1.16,7.285-2.085h0.009c1.239-0.506,2.434-1.073,3.568-1.701
				c0.34-0.27,0.68-0.55,1.003-0.838C66.144,56.226,68.22,45.408,62.724,36.841z"/>
			<path fill="#295B9F" d="M45.921,62.995c11.392-4.642,12.005-16.404-1.233-23.025c-9.616-4.811-5.369-12.448,6.507-9.199
				C64.461,34.255,60.537,57.357,45.921,62.995z"/>
			<path fill="#449BC1" d="M63.6,24.412c-12.519-3.981-22.23-3.637-28.603-1.072c-0.031,0.011-0.063,0.023-0.094,0.037
				c-9.473,3.861-11.493,12.645-4.29,19.301c-1.898-1.574-4.064-3.247-5.001-5.375c-1.197-2.718-1.557-6.08-1.078-8.907
				c0.648-3.823,3.065-7.271,7.042-9.378c1.583-0.839,3.966-1.439,6.111-1.762C46.106,16.251,55.459,18.119,63.6,24.412z"/>
			<path fill="#0670B0" d="M32.733,56.235c-0.823-0.266-1.749-0.393-2.509-0.699c-9.67-3.887-14.835-11.121-14.649-18.259
				c0.132-5.072,3.106-10.209,7.975-14.443c1.378-1.196,3.194-2.207,4.866-3.201c0.004-0.004,0.008-0.004,0.012-0.004
				c2.277-0.927,4.727-1.639,7.285-2.086c0.65-0.112,1.308-0.207,1.974-0.286c-0.786,0.12-1.531,0.273-2.239,0.472
				c-12.513,3.403-13.262,17.964-4.835,24.951c0,0,0.004,0,0.008,0.004c1.457,1.345,3.291,2.608,5.513,3.717
				C44.856,50.768,42.174,57.456,32.733,56.235z"/>
			<path fill="#295B9F" d="M32.733,56.235c-0.964-0.124-2.003-0.331-3.104-0.633c-18.54-5.066-21.259-20.811-9.744-30.824
				c2.376-2.065,5.277-3.825,8.531-5.145c-1.672,0.993-3.216,2.099-4.594,3.295C11.561,33.59,14.003,50.171,32.733,56.235z"/>
		</g>
	</g>
</g>
</svg>
